HIERARCHY
ROOT Hips
{
	OFFSET 0.000000 0.000000 0.000000
	CHANNELS 6 Xposition Yposition Zposition Xrotation Yrotation Zrotation
	JOINT LeftUpLeg_virtual
	{
		OFFSET 0.000000 0.000000 0.000000
		CHANNELS 3 Xrotation Yrotation Zrotation
		JOINT LeftUpLeg
		{
			OFFSET 10.205400 -3.823500 0.155100
			CHANNELS 3 Xrotation Yrotation Zrotation
			JOINT LeftLeg
			{
				OFFSET 0.708757 -12.982077 0.567790
				CHANNELS 3 Xrotation Yrotation Zrotation
				JOINT LeftFoot
				{
					OFFSET -0.708756 -10.717838 -2.184338
					CHANNELS 3 Xrotation Yrotation Zrotation
					JOINT LeftToeBase
					{
						OFFSET 0.108149 -7.191104 7.560241
						CHANNELS 3 Xrotation Yrotation Zrotation
						JOINT LeftToe_End
						{
							OFFSET 0.070230 0.081724 4.490308
							CHANNELS 3 Xrotation Yrotation Zrotation
							End Site
							{
								OFFSET 0 0 0
							}
						}
					}
				}
			}
		}
	}
	JOINT RightUpLeg_virtual
	{
		OFFSET 0.000000 0.000000 0.000000
		CHANNELS 3 Xrotation Yrotation Zrotation
		JOINT RightUpLeg
		{
			OFFSET -10.205400 -3.823500 0.005500
			CHANNELS 3 Xrotation Yrotation Zrotation
			JOINT RightLeg
			{
				OFFSET -0.708756 -12.982134 0.610632
				CHANNELS 3 Xrotation Yrotation Zrotation
				JOINT RightFoot
				{
					OFFSET 0.708754 -10.717769 -1.945823
					CHANNELS 3 Xrotation Yrotation Zrotation
					JOINT RightToeBase
					{
						OFFSET -0.108140 -7.191069 7.372968
						CHANNELS 3 Xrotation Yrotation Zrotation
						JOINT RightToe_End
						{
							OFFSET -0.070227 0.081735 4.479403
							CHANNELS 3 Xrotation Yrotation Zrotation
							End Site
							{
								OFFSET 0 0 0
							}
						}
					}
				}
			}
		}
	}
	JOINT Spine_virtual
	{
		OFFSET 0.000000 0.000000 0.000000
		CHANNELS 3 Xrotation Yrotation Zrotation
		JOINT Spine
		{
			OFFSET 0.000000 6.876099 0.125700
			CHANNELS 3 Xrotation Yrotation Zrotation
			JOINT Spine1
			{
				OFFSET 0.000000 5.730043 0.104720
				CHANNELS 3 Xrotation Yrotation Zrotation
				JOINT Spine1_split
				{
					OFFSET 0.000000 5.730043 0.104720
					CHANNELS 3 Xrotation Yrotation Zrotation
					JOINT Spine2
					{
						OFFSET 0.000000 5.730043 0.104720
						CHANNELS 3 Xrotation Yrotation Zrotation
						JOINT Neck_virtual
						{
							OFFSET 0.000000 0.000000 0.000000
							CHANNELS 3 Xrotation Yrotation Zrotation
							JOINT Neck
							{
								OFFSET 0.000000 10.314075 0.188496
								CHANNELS 3 Xrotation Yrotation Zrotation
								JOINT Head
								{
									OFFSET 0.000000 7.643700 -2.377400
									CHANNELS 3 Xrotation Yrotation Zrotation
									JOINT HeadTop_End
									{
										OFFSET 0.000000 43.788605 -13.619600
										CHANNELS 3 Xrotation Yrotation Zrotation
										End Site
										{
											OFFSET 0 0 0
										}
									}
								}
							}
						}
						JOINT LeftShoulder_virtual
						{
							OFFSET 0.000000 0.000000 0.000000
							CHANNELS 3 Xrotation Yrotation Zrotation
							JOINT LeftShoulder
							{
								OFFSET 2.196100 4.412489 0.087492
								CHANNELS 3 Xrotation Yrotation Zrotation
								JOINT LeftShoulder_split
								{
									OFFSET 2.196100 4.412489 0.087492
									CHANNELS 3 Xrotation Yrotation Zrotation
									JOINT LeftArm
									{
										OFFSET 8.771219 -2.981674 -0.026999
										CHANNELS 3 Xrotation Yrotation Zrotation
										JOINT LeftForeArm
										{
											OFFSET 8.512804 0.000000 -0.000000
											CHANNELS 3 Xrotation Yrotation Zrotation
											JOINT LeftHand
											{
												OFFSET 18.484802 0.000000 -0.000000
												CHANNELS 3 Xrotation Yrotation Zrotation
												End Site
												{
													OFFSET 0 0 0
												}
											}
										}
									}
								}
							}
						}
						JOINT RightShoulder_virtual
						{
							OFFSET 0.000000 0.000000 0.000000
							CHANNELS 3 Xrotation Yrotation Zrotation
							JOINT RightShoulder
							{
								OFFSET -2.196100 4.412496 0.070690
								CHANNELS 3 Xrotation Yrotation Zrotation
								JOINT RightShoulder_split
								{
									OFFSET -2.196100 4.412496 0.070690
									CHANNELS 3 Xrotation Yrotation Zrotation
									JOINT RightArm
									{
										OFFSET -8.771282 -2.981682 -0.094208
										CHANNELS 3 Xrotation Yrotation Zrotation
										JOINT RightForeArm
										{
											OFFSET -8.494598 0.000000 0.000000
											CHANNELS 3 Xrotation Yrotation Zrotation
											JOINT RightHand
											{
												OFFSET -18.483803 0.000000 0.000001
												CHANNELS 3 Xrotation Yrotation Zrotation
												End Site
												{
													OFFSET 0 0 0
												}
											}
										}
									}
								}
							}
						}
					}
				}
			}
		}
	}
}
MOTION
Frames: 6
Frame Time: 0.03333333
-2.128324 29.720800 -2.488049 0.000000 0.000000 0.000000 21.279680 -62.471068 15.468538 -59.658615 -16.182856 21.682538 42.604852 -5.858904 5.223886 4.007971 1.067142 -17.715889 -2.005222 3.487797 -2.754834 0.000000 0.000000 0.000000 16.918204 -67.148655 14.306765 -39.278482 -1.906290 -18.783572 56.066404 -5.271758 4.373312 0.979230 -4.203304 19.475818 -5.225950 -0.628661 7.662541 0.000000 0.000000 0.000000 23.447346 -66.208971 16.988794 8.711865 7.975981 -3.316334 -0.296873 11.190513 3.237890 0.154394 1.084847 0.355918 0.000000 0.000000 0.000000 11.123636 12.581331 0.678406 0.669205 9.458995 -6.070147 -11.852823 7.691888 8.721170 0.000000 0.000000 0.000000 5.204580 13.845803 1.234870 5.938137 6.476897 -8.110914 10.299105 7.456704 -2.820893 -61.480158 -33.419036 -45.562717 6.594483 -78.214880 2.892618 0.000000 0.000000 0.000000 6.532329 12.840052 1.687262 -13.723101 4.834250 -1.957375 -4.571338 -2.359807 -9.248791 -78.994642 40.297928 106.440869 -7.612382 48.110548 6.549316 0.000000 0.000000 0.000000 
-1.994639 30.096645 -4.669102 0.000000 0.000000 0.000000 19.834639 -60.539307 12.784028 -60.838305 -14.504509 18.989476 43.268641 -4.054404 4.328471 4.014302 1.335509 -17.572205 -3.052908 3.014281 -2.081576 0.000000 0.000000 0.000000 17.159986 -67.057964 13.275210 -38.302833 -3.757902 -16.131565 54.125715 -3.498544 3.605164 1.880251 -2.178782 23.507913 -6.113850 0.140476 5.567982 0.000000 0.000000 0.000000 25.906207 -67.523988 18.537772 7.912363 8.054831 -2.531628 -0.729219 11.248584 3.398660 -0.002764 0.563222 0.424666 0.000000 0.000000 0.000000 11.238841 12.843497 0.670464 1.595367 9.597829 -6.670880 -11.513932 8.578607 8.173955 0.000000 0.000000 0.000000 5.378390 13.914041 1.253777 5.793682 6.328720 -8.050076 10.162568 7.842405 -2.492580 -61.538174 -33.210012 -44.972568 5.776819 -77.173064 1.797838 0.000000 0.000000 0.000000 6.583811 13.054326 1.826929 -13.441694 5.459416 -1.863300 -5.316839 -2.574175 -10.169662 -78.648986 39.288553 105.376794 -7.369572 47.323307 6.316672 0.000000 0.000000 0.000000 
-1.834845 30.462908 -7.234972 0.000000 0.000000 0.000000 19.004808 -61.693677 10.928901 -60.563854 -9.576960 15.541778 44.104970 -2.157973 2.842577 4.189630 0.817751 -17.272929 -4.097935 2.159664 -0.349934 0.000000 0.000000 0.000000 19.421291 -68.361915 13.456387 -35.725926 -6.838855 -10.555841 50.702827 -2.803529 2.626901 0.461909 -1.252836 25.570790 -6.881025 0.558974 2.892991 0.000000 0.000000 0.000000 29.356146 -70.309066 21.054828 6.897911 8.541648 -1.180920 -0.949361 11.602797 3.674623 0.164287 0.479681 0.678869 0.000000 0.000000 0.000000 11.433253 13.347594 0.910069 2.367691 9.780556 -7.852441 -10.494689 9.699023 6.443469 0.000000 0.000000 0.000000 5.646376 14.194672 1.483594 5.673361 5.989826 -8.408488 10.562970 8.058269 -2.164652 -61.243923 -33.636353 -44.923117 7.139706 -77.344379 2.761584 0.000000 0.000000 0.000000 6.764918 13.480953 2.231611 -13.056850 6.533477 -1.510534 -6.095946 -2.847837 -10.515538 -78.091677 39.472517 103.775429 -7.010217 46.852004 5.951025 0.000000 0.000000 0.000000 
-1.789207 30.619312 -9.960766 0.000000 0.000000 0.000000 20.000939 -66.388114 11.180450 -59.131311 -3.353655 11.899521 45.333198 -0.625077 1.095867 4.209621 -0.209182 -16.628727 -4.368468 1.173377 1.806500 0.000000 0.000000 0.000000 23.655064 -71.549401 15.665558 -32.738569 -10.155023 -4.420580 48.498899 -3.662753 1.925345 -3.469464 -2.342065 24.340096 -6.773137 0.482353 0.302158 0.000000 0.000000 0.000000 35.107022 -74.066284 25.915225 5.912072 9.243009 0.353298 -1.003083 12.178230 4.049080 0.341313 0.444311 0.884699 0.000000 0.000000 0.000000 11.518240 13.997958 1.370426 2.968031 9.930507 -9.211430 -9.276332 10.950680 3.934701 0.000000 0.000000 0.000000 5.894082 14.634140 1.871443 5.628600 5.618451 -9.088141 11.448247 8.012366 -1.854160 -60.367958 -34.545017 -45.202872 10.096445 -78.215460 5.263977 0.000000 0.000000 0.000000 7.038583 14.064295 2.820498 -12.645418 7.873929 -1.014375 -6.933710 -2.881882 -10.590467 -77.143182 40.424137 102.005112 -6.584327 46.696893 5.472049 0.000000 0.000000 0.000000 
-1.847564 30.430969 -12.731443 0.000000 0.000000 0.000000 24.724824 -73.289200 15.500331 -57.815571 2.299154 8.540408 47.179204 0.085419 -0.535166 4.229809 -1.477175 -15.726178 -3.324019 0.417150 3.331476 0.000000 0.000000 0.000000 31.140257 -76.373147 21.938209 -30.009679 -12.771393 -0.641154 49.424325 -5.869612 1.717736 -9.209498 -5.142140 19.630683 -6.158971 -0.073770 -1.610437 0.000000 0.000000 0.000000 43.755076 -77.651587 33.950295 5.053386 10.032070 1.684830 -0.997319 12.879825 4.494494 0.488053 0.530684 0.953311 0.000000 0.000000 0.000000 11.395413 14.690152 1.940822 3.423724 9.863877 -10.281238 -8.345306 12.129777 1.302671 0.000000 0.000000 0.000000 6.061545 15.186328 2.318842 5.731708 5.463808 -10.133068 11.965893 7.308811 -1.042547 -58.875554 -35.644244 -45.513474 13.625942 -79.143055 8.397678 0.000000 0.000000 0.000000 7.271146 14.741643 3.458693 -12.363549 9.219921 -0.485843 -7.157929 -2.438137 -10.343126 -75.899248 41.267757 100.418534 -6.188480 47.080286 4.941077 0.000000 0.000000 0.000000 
-2.035338 29.897526 -15.764780 0.000000 0.000000 0.000000 38.916594 -80.164646 29.804429 -57.830249 5.726341 6.389063 49.843678 -0.305062 -1.737283 3.483377 -2.381664 -14.597140 -1.096054 0.117691 3.736733 0.000000 0.000000 0.000000 48.811021 -81.969455 39.642722 -28.586391 -13.975510 -1.453544 53.715872 -8.191021 1.906646 -14.832162 -8.051581 12.961774 -5.399058 -0.770347 -2.685018 0.000000 0.000000 0.000000 56.875118 -80.295881 46.617380 4.295007 10.791654 2.604337 -1.030737 13.588624 4.912376 0.620112 0.900628 0.850084 0.000000 0.000000 0.000000 11.160922 15.367820 2.407920 3.867065 9.462533 -10.784338 -7.962918 13.137994 -0.820558 0.000000 0.000000 0.000000 6.100440 15.844844 2.690048 6.005843 5.694807 -11.464323 11.525913 6.148372 0.350335 -57.030591 -36.607625 -45.608096 16.121434 -79.699544 10.646517 0.000000 0.000000 0.000000 7.416392 15.467513 3.964854 -12.285512 10.263324 -0.094890 -6.338245 -1.655186 -9.916037 -74.888919 41.430152 99.491459 -5.892599 47.893133 4.413603 0.000000 0.000000 0.000000 
